<svg width="133" height="133" viewBox="0 0 133 133" fill="none" xmlns="http://www.w3.org/2000/svg">
<g filter="url(#filter0_d_4_133)">
<g filter="url(#filter1_d_4_133)">
<path d="M78.0625 61H54.9375C51.1057 61 48 57.8943 48 54.0625V30.9375C48 27.1057 51.1057 24 54.9375 24H78.0625C81.8943 24 85 27.1057 85 30.9375V54.0625C85 57.8943 81.8943 61 78.0625 61Z" fill="#1A72DD"/>
</g>
<path fill-rule="evenodd" clip-rule="evenodd" d="M64.3414 33.7167C64.3414 32.7702 65.1116 32 66.0581 32C67.0046 32 67.7749 32.7702 67.7749 33.7167V34.0979C67.7749 34.1375 67.7708 34.1762 67.7631 34.2136H72.3529C72.774 34.2136 73.1163 34.5558 73.1163 34.977C73.1163 35.3982 72.7752 35.7404 72.3529 35.7404H59.7634C59.3422 35.7404 59 35.3982 59 34.977C59 34.5558 59.3411 34.2136 59.7634 34.2136H64.3531C64.3454 34.1762 64.3414 34.1375 64.3414 34.0979V33.7167ZM60.7167 36.5038V47.214C60.7167 47.7462 61.0177 48.212 61.5019 48.4306C61.6815 48.5118 61.8704 48.5507 62.0558 48.5507C62.3717 48.5507 62.683 48.4363 62.9325 48.2154L66.0581 45.4675L69.1814 48.2166C69.5809 48.5679 70.1291 48.6492 70.6132 48.4317C71.0973 48.2131 71.3983 47.7462 71.3983 47.2151V36.5038H60.7167ZM64.1502 48.6732L66.0581 46.9943L67.9649 48.6732V50.4278C67.9649 50.7402 67.7051 51 67.3926 51H64.7225C64.41 51 64.1502 50.7402 64.1502 50.4278V48.6732Z" fill="#F8CF33"/>
</g>
<defs>
<filter id="filter0_d_4_133" x="0" y="0" width="133" height="133" filterUnits="userSpaceOnUse" color-interpolation-filters="sRGB">
<feFlood flood-opacity="0" result="BackgroundImageFix"/>
<feColorMatrix in="SourceAlpha" type="matrix" values="0 0 0 0 0 0 0 0 0 0 0 0 0 0 0 0 0 0 127 0" result="hardAlpha"/>
<feOffset dy="24"/>
<feGaussianBlur stdDeviation="24"/>
<feColorMatrix type="matrix" values="0 0 0 0 0.101961 0 0 0 0 0.447059 0 0 0 0 0.866667 0 0 0 0.15 0"/>
<feBlend mode="normal" in2="BackgroundImageFix" result="effect1_dropShadow_4_133"/>
<feBlend mode="normal" in="SourceGraphic" in2="effect1_dropShadow_4_133" result="shape"/>
</filter>
<filter id="filter1_d_4_133" x="28" y="10" width="77" height="77" filterUnits="userSpaceOnUse" color-interpolation-filters="sRGB">
<feFlood flood-opacity="0" result="BackgroundImageFix"/>
<feColorMatrix in="SourceAlpha" type="matrix" values="0 0 0 0 0 0 0 0 0 0 0 0 0 0 0 0 0 0 127 0" result="hardAlpha"/>
<feOffset dy="6"/>
<feGaussianBlur stdDeviation="10"/>
<feColorMatrix type="matrix" values="0 0 0 0 0 0 0 0 0 0 0 0 0 0 0 0 0 0 0.06 0"/>
<feBlend mode="normal" in2="BackgroundImageFix" result="effect1_dropShadow_4_133"/>
<feBlend mode="normal" in="SourceGraphic" in2="effect1_dropShadow_4_133" result="shape"/>
</filter>
</defs>
</svg>
