<svg xmlns="http://www.w3.org/2000/svg" enable-background="new 0 0 450 450" viewBox="0 0 450 450"><path fill="#edf3ff" d="M383.78 258.66c-17.531 32.69-49.356 59.898-86.364 62.483-39.819 2.786-79.324-22.526-118.064-12.901-23.793 5.91-44.851 24.647-69.26 22.363-20.103-1.895-37.308-20.242-37.898-40.434l-4.957-28.26c-6.564-39.33 8.596-80.467 35.188-110.184s63.562-48.779 102.076-59.12c38.125-10.24 79.5-12.26 116.533 1.368 37.045 13.629 68.87 44.701 76.877 83.353 5.697 27.495-.854 56.585-14.13 81.332z" opacity=".5" class="coloredf3ff svgShape"/><path fill="#edf3ff" d="M77.484 234.336c-.495-3.58.29-9.603 3.259-15.777 12.238-25.733 45.03-29.464 67.94-39.967 28.268-13.115 35.686-36.4 48.308-64.932 3.708-8.336 7.705-16.665 12.894-24.382 14.18-21.225 31.325-24.87 32.519-25.652l5.08-1.433 5.167-1.018 3.477-.425c53.354-6.264 143.48 47.505 147.768 120.179.044 1.002.07 1.837.08 2.505.021 1.336-.024 2.004-.134 2.012-.11.007-.281-.645-.513-1.953a91.954 91.954 0 0 1-.392-2.453C385.67 86.907 286.471 66.847 286.37 66.794c-18.31-4.259-32.461-1.644-33.087-1.634-1.33.72-23.284 1.292-40.054 26.378-4.965 7.38-8.88 15.503-12.549 23.757-13.27 29.985-20.82 53.378-50.455 66.686-22.785 10.097-71.343 16.521-72.09 52.342-.092 2.647-.317 2.674-.65.013zM382.28 271.204c.186.09-.48 1.992-2.102 5.678-1.628 3.683-4.189 9.168-8.135 16.243-1.978 3.534-4.3 7.468-7.142 11.688-2.835 4.222-6.16 8.753-10.183 13.393-24.087 27.53-53.28 35.143-75.958 29.638-32.783-8.165-58.46-45.74-92.523-35.55-13.468 4.074-44.224 27.7-76.15 2.16-18.623-14.95-20.321-38.335-17.889-31.135 3.66 11.618 9.897 21.488 19.668 28.844 30.808 23.103 58.21.832 73.21-3.733 36.347-10.913 62.783 27.551 94.645 35.494 20.812 5.047 48.648-1.885 72.497-27.937 4.016-4.424 7.386-8.767 10.298-12.825 2.918-4.054 5.35-7.849 7.455-11.255 4.201-6.822 7.088-12.106 9.07-15.595 1.977-3.493 3.028-5.21 3.239-5.108z" class="coloredf3ff svgShape"/><path fill="#d5e1fa" d="M280.934 227.456c-.2.07-.463-.118-.714-.601l-.426-1.3c-.084-.538.017-.846.225-.91.208-.063.468.133.722.609l.42 1.283c.077.534-.017.846-.227.92zM283.117 232.95c-.194.087-.472-.079-.762-.54l-.532-1.261c-.128-.53-.053-.844.15-.924s.477.093.77.546l.524 1.243c.12.526.053.845-.15.936zM285.78 238.227c-.184.105-.476-.035-.807-.468l-.646-1.208c-.176-.515-.13-.836.064-.933s.485.05.817.474l.636 1.189c.168.512.13.836-.064.946zM288.956 243.212c-.173.124-.477.015-.851-.382l-.767-1.137c-.228-.495-.215-.818-.032-.934.184-.117.489.002.862.388l.753 1.117c.22.491.216.818.035.948zM292.667 247.809c-.156.143-.47.07-.888-.28l-.893-1.042c-.284-.466-.307-.787-.138-.924.17-.136.486-.053.901.287l.875 1.02c.274.463.308.789.143.939zM296.921 251.905c-.136.162-.457.13-.917-.165l-1.02-.92c-.341-.426-.406-.742-.255-.899.152-.156.476-.114.932.171l.997.9c.331.423.406.742.263.913zM301.71 255.366c-.111.18-.433.196-.931-.03l-1.144-.764c-.4-.373-.509-.676-.381-.852s.455-.181.947.035l1.116.744c.388.372.509.677.393.867zM306.96 258.076c-.082.195-.398.259-.925.109l-1.245-.585c-.451-.31-.604-.592-.504-.786.1-.193.424-.246.942-.106l1.214.57c.44.31.605.593.518.798zM312.563 259.952c-.051.206-.353.318-.896.251l-1.322-.385c-.494-.236-.689-.492-.62-.698s.382-.31.915-.251l1.287.375c.481.237.689.492.636.708zM318.398 260.888c-.015.211-.293.372-.841.397l-1.37-.16c-.528-.15-.762-.37-.727-.586.035-.214.326-.368.86-.4l1.331.156c.514.154.762.37.747.593zM324.298 260.762c.025.21-.218.42-.752.544l-1.378.095c-.546-.051-.816-.225-.82-.442s.255-.422.774-.551l1.333-.092c.533.057.817.224.843.446zM330.06 259.477c.067.201-.127.458-.624.697l-1.33.387c-.55.041-.85-.085-.897-.297-.047-.212.168-.455.656-.666l1.28-.375c.531-.059.843.044.914.254zM335.424 257.024c.107.183-.031.471-.471.8l-1.224.638c-.52.171-.837.12-.927-.078s.065-.489.488-.815l1.183-.616c.51-.16.838-.12.95.07zM340.2 253.552c.142.158.062.469-.306.877l-1.076.865c-.478.27-.798.283-.925.106-.128-.175-.033-.49.32-.894l1.042-.838c.47-.257.798-.282.946-.116zM344.234 249.229c.169.129.149.45-.135.92l-.894 1.054c-.417.356-.73.428-.889.28s-.125-.477.145-.94l.866-1.02c.413-.342.73-.43.907-.294zM347.369 244.22c.19.093.232.411.044.927l-.675 1.205c-.341.43-.634.56-.818.444s-.214-.444-.038-.949l.653-1.165c.34-.415.634-.561.834-.462zM349.443 238.696c.206.053.31.355.23.898l-.418 1.317c-.248.49-.508.675-.711.598-.204-.076-.299-.392-.229-.922l.404-1.27c.249-.474.509-.677.724-.62zM350.302 232.853c.212.007.38.28.418.828l-.126 1.378c-.137.532-.351.77-.566.737-.215-.031-.376-.32-.421-.852l.121-1.328c.14-.516.351-.77.574-.763zM349.89 226.962c.208-.037.43.193.584.721l.17 1.373c-.021.548-.18.826-.397.84s-.435-.232-.592-.743l-.164-1.324c.028-.534.18-.827.399-.867zM348.23 221.296c.195-.082.46.095.725.577l.462 1.306c.097.54.002.846-.207.906-.209.06-.475-.134-.739-.599l-.444-1.257c-.088-.527-.003-.846.202-.933zM345.32 216.157c.169-.127.468-.018.839.39l.755 1.164c.222.504.2.822.01.928s-.495-.021-.859-.41l-.724-1.116c-.208-.492-.2-.823-.022-.956zM341.205 211.926c.126-.165.464-.161.933.133l1.021.945c.341.436.4.751.243.902-.156.151-.483.103-.93-.184l-.974-.903c-.332-.415-.432-.713-.293-.893zM336.067 209.033c.077-.198.388-.263.919-.11l1.258.593c.454.312.602.593.495.783-.107.189-.435.24-.949.101l-1.2-.566c-.434-.308-.603-.593-.523-.801zM330.33 207.66c.02-.212.302-.358.854-.355l1.37.232c.522.177.74.408.69.62s-.353.349-.886.354l-1.309-.221c-.501-.18-.741-.41-.72-.63zM324.437 207.896c-.04-.207.188-.45.718-.617.46-.067.921-.118 1.384-.154.553.046.827.233.835.449.008.218-.247.41-.759.542-.44.034-.88.083-1.317.146-.528-.016-.819-.146-.86-.366zM318.892 209.869c-.103-.184.035-.487.489-.812.417-.207.842-.398 1.274-.572.544-.123.862-.026.933.178.072.207-.114.464-.56.744-.41.164-.811.344-1.205.54-.506.148-.822.117-.931-.078zM314.329 213.585c-.16-.136-.136-.469.178-.931.32-.34.654-.665 1.001-.977.47-.302.804-.317.94-.15.137.17.048.475-.275.89-.327.293-.642.6-.944.92-.423.313-.73.394-.9.248zM311.356 218.662c-.199-.07-.296-.39-.166-.935.18-.432.38-.855.596-1.269.335-.447.643-.578.828-.468.188.112.21.428.053.929-.204.389-.39.786-.56 1.19-.283.442-.54.628-.751.553zM310.582 224.478c-.206.02-.432-.23-.539-.784-.013-.47-.002-.94.034-1.41.132-.547.367-.786.58-.756.217.03.359.313.411.832-.033.435-.043.87-.031 1.306-.076.515-.228.79-.455.812zM312.354 230.078c-.183.103-.487-.035-.811-.492-.206-.42-.394-.849-.561-1.286-.115-.55-.007-.866.198-.931.21-.066.46.127.73.575.156.409.332.81.525 1.204.145.504.115.82-.08.93zM316.043 234.669c-.141.157-.472.123-.927-.198a19.297 19.297 0 0 1-.959-1.011c-.297-.471-.311-.804-.143-.94.17-.136.476-.046.888.282.292.33.596.651.911.96.307.43.38.74.23.907zM320.95 237.938c-.09.192-.41.245-.94.074-.42-.197-.805-.46-1.206-.695-.424-.359-.546-.657-.425-.838.121-.18.449-.2.943-.01.381.222.746.474 1.148.661.422.32.576.607.48.808zM326.574 239.711c-.036.21-.329.335-.879.293l-1.35-.328c-.507-.214-.709-.46-.643-.668.066-.207.376-.323.908-.29l1.291.313c.488.215.71.461.673.68zM332.47 239.995c.016.211-.237.406-.78.502l-1.387.02c-.545-.082-.803-.27-.792-.487.01-.217.282-.407.806-.508l1.332-.018c.527.086.803.268.82.49zM338.266 238.84c.067.2-.131.451-.635.676l-1.343.353c-.548.053-.844-.067-.886-.28s.176-.464.66-.688l1.288-.34c.533-.043.846.067.916.279zM343.585 236.294c.117.178-.011.469-.442.811l-1.21.679c-.517.188-.832.145-.925-.051-.094-.196.054-.493.465-.83l1.157-.65c.503-.174.833-.145.955.04zM348.039 232.432c.159.14.117.459-.199.913l-.968.993c-.466.304-.79.339-.932.175-.142-.165-.07-.482.251-.9l.927-.952c.432-.311.754-.376.92-.23z" class="colord5e1fa svgShape"/><path fill="#d5e1fa" d="M351.423 227.595c.186.102.214.422.002.929l-.729 1.174c-.36.413-.659.53-.837.405-.178-.125-.192-.454.006-.95l.704-1.135c.358-.398.66-.53.854-.423zM353.826 222.198c.2.07.283.381.166.917l-.508 1.278c-.28.47-.554.64-.753.55-.199-.088-.272-.407-.164-.933l.495-1.247c.282-.457.554-.64.764-.565zM355.45 216.51c.208.047.33.346.282.89l-.337 1.33c-.218.5-.468.705-.677.645s-.323-.366-.283-.902l.33-1.306c.222-.491.468-.706.686-.657zM356.513 210.695c.21.031.357.321.357.865l-.221 1.348c-.174.515-.405.742-.62.703-.213-.038-.354-.332-.36-.872l.219-1.334c.178-.51.405-.743.625-.71zM357.3 204.83c.21.027.366.314.385.856l-.173 1.35c-.155.52-.379.757-.594.729-.216-.029-.367-.315-.392-.857l.173-1.348c.161-.519.38-.757.6-.73zM358.095 198.967c.21.032.362.323.374.863l-.191 1.342c-.162.515-.39.752-.605.723-.215-.029-.363-.316-.38-.86l.193-1.35c.167-.518.389-.751.61-.718zM359.183 193.157c.207.048.34.35.319.887l-.273 1.321c-.194.502-.435.725-.65.686-.213-.04-.343-.333-.325-.878l.276-1.34c.2-.508.436-.726.653-.676zM360.854 187.49c.2.074.297.39.215.921l-.421 1.275c-.25.475-.516.67-.725.61-.208-.061-.304-.366-.224-.907l.43-1.305c.258-.483.517-.671.725-.593zM363.33 182.128c.183.105.23.434.067.944l-.61 1.191c-.32.43-.613.583-.811.493s-.246-.406-.082-.929l.629-1.227c.33-.439.613-.583.806-.472zM366.775 177.342c.157.143.134.476-.127.94l-.835 1.035c-.398.352-.718.445-.895.318-.177-.126-.161-.442.106-.922l.869-1.077c.413-.363.718-.445.882-.294zM370.202 174.272c.123.173.12.418-.056.668l-.584.456c-.285.111-.524.055-.665-.111-.14-.166-.143-.4.039-.661l.612-.478c.297-.114.524-.055.654.126zM406.158 167.947l-40.522-5.089 1.44 3.33z" class="colord5e1fa svgShape"/><path fill="#edf3ff" d="m406.158 167.947-52.98 5.906 10.567-8.904zM406.158 167.947l-31.72-8.478-8.802 3.39z" class="coloredf3ff svgShape"/><path fill="#d5e1fa" d="m364.091 172.627 2.646 5.119 39.42-9.798z" class="colord5e1fa svgShape"/><path fill="#c7d6f2" d="m364.091 172.627 1.086 2.1 40.98-6.78z" class="colorc7d6f2 svgShape"/><ellipse cx="226.108" cy="373.841" fill="#edf3ff" rx="175" ry="15.906" class="coloredf3ff svgShape"/><path fill="#e1ebff" d="M317.402 80.287v134.75c0 5.96-4.83 10.78-10.78 10.78h-120.54c-5.96 0-10.79-4.82-10.79-10.78V80.287c0-5.96 4.83-10.78 10.79-10.78h120.54c5.95 0 10.78 4.82 10.78 10.78z" class="colore1ebff svgShape"/><path fill="#c7d6f2" d="M256.487 199.624c0 2.81-1.75 5.22-4.22 6.17v8.94c0 .67-.27 1.27-.71 1.7a2.403 2.403 0 0 1-4.1-1.7v-8.94a6.61 6.61 0 0 1-4.21-6.17c0-3.65 2.96-6.62 6.62-6.62s6.62 2.97 6.62 6.62z" class="colorc7d6f2 svgShape"/><path fill="#ffffff" d="M297.238 179.088a7.078 7.078 0 0 1-7.089 7.09h-87.602c-3.881 0-7.087-3.208-7.087-7.09a7.075 7.075 0 0 1 7.087-7.088h87.602c3.967 0 7.09 3.122 7.09 7.088zM195.46 155.46a7.076 7.076 0 0 1 7.087-7.09h87.602c3.967 0 7.09 3.122 7.09 7.09a7.076 7.076 0 0 1-7.09 7.088h-87.602c-3.881 0-7.087-3.206-7.087-7.088z" class="colorfff svgShape"/><path fill="#c7d6f2" d="M246.349 139.84c-15.276 0-27.705-12.428-27.705-27.704s12.43-27.704 27.705-27.704 27.704 12.428 27.704 27.704-12.429 27.703-27.704 27.703zm0-54.126c-14.569 0-26.421 11.853-26.421 26.422s11.852 26.421 26.42 26.421 26.421-11.853 26.421-26.421-11.852-26.422-26.42-26.422z" class="colorc7d6f2 svgShape"/><circle cx="246.349" cy="112.136" r="23.619" fill="#ffffff" class="colorfff svgShape"/><path fill="#c7d6f2" d="M237.887 102.891c0-4.668 3.795-8.45 8.463-8.45a8.45 8.45 0 0 1 8.45 8.45c0 4.68-3.783 8.463-8.45 8.463a8.463 8.463 0 0 1-8.463-8.463zM260.929 120.022c-2.347 5.757-7.989 9.809-14.58 9.809-6.59 0-12.232-4.052-14.579-9.81-1.09-2.667.898-5.603 3.783-5.603h21.58c2.885 0 4.886 2.936 3.796 5.604z" class="colorc7d6f2 svgShape"/><path fill="#ffc5c5" d="M163.735 185.599c2.174 1.56 4.297 3.084 6.471 4.66.38-.623.742-1.213 1.104-1.803.439-.717.868-1.424 1.306-2.132.717-1.146 1.408-2.31 2.166-3.422.337-.488.674-.969.919-1.5a4.1 4.1 0 0 0 .286-.716 2.937 2.937 0 0 1 1.34-1.727 17.783 17.783 0 0 1 4.938-2.023c.38-.092.733-.303 1.07-.497.464-.261.877-.59 1.349-.834.598-.304 1.222-.59 1.854-.818.522-.193.716-.581.85-1.062a.778.778 0 0 1 .304-.395c.203-.16.472-.253.674-.422.371-.303.961-.573.835-1.137-.135-.599.134-.81.564-1.045.531-.295.658-.776.363-1.315-.194-.354-.48-.649-.658-.994-.092-.186-.143-.565-.042-.65 1.146-.952 2.326-1.862 3.48-2.797.177-.143.405-.447.346-.581-.067-.194-.38-.422-.581-.413-.565.033-1.172.084-1.686.303a13.48 13.48 0 0 0-2.351 1.264c-.8.53-1.559.885-2.57.674-.64-.135-.876.194-.826.86.025.261 0 .438-.303.514-.514.143-1.028.311-1.543.48-.825.27-1.651.548-2.485.809-.102.034-.22 0-.33-.008-.041-.042-.075-.093-.109-.144.236-.278.439-.598.717-.834.758-.64 1.567-1.23 2.325-1.88.776-.665 1.273-1.482 1.121-2.561-.126-.893-.767-1.188-1.483-.624-.59.472-1.137 1.012-1.668 1.56-.801.825-1.576 1.668-2.613 2.216-.421.219-.876.421-1.23.733-.91.792-1.829 1.601-2.646 2.494a13.61 13.61 0 0 0-1.71 2.318c-.709 1.18-1.214 2.452-2.124 3.522-.211.253-.413.514-.59.792-.396.582-.742 1.205-1.104 1.804-1.348 2.233-2.84 4.365-4.677 6.227-.346.354-.683.716-1.053 1.104z" class="colorffc5c5 svgShape"/><path fill="#fcafaf" d="M163.735 185.599c2.174 1.56 4.297 3.084 6.471 4.66.38-.623.742-1.213 1.104-1.803.439-.717.868-1.424 1.306-2.132.717-1.146 1.408-2.31 2.166-3.422.337-.488.674-.969.919-1.5-.152-.025-.287-.059-.43-.092-1.82-.489-3.346-1.863-4.188-3.548-.21-.421-.38-.851-.514-1.298-.396.582-.742 1.205-1.104 1.804-1.348 2.233-2.84 4.365-4.677 6.227-.346.354-.683.716-1.053 1.104z" class="colorfcafaf svgShape"/><path fill="#1f2123" d="M118.386 366.86c-.165.072-5.12 7.884-1.34 9.728 3.78 1.843 25.945 3.84 28.364-2.016.403-.987-.233-2.07-1.055-2.961-1.065-1.155-2.454-1.958-3.962-2.4-4.694-1.377-19.162-4.943-21.861-2.649l-.146.299z" class="color1f2123 svgShape"/><path fill="#ffc5c5" d="M133.483 369.72c-1.204 1.933-13.681 2.507-15.089.17-.405-.673-.542-1.74-.533-2.924.009-2.94.304-6.572.333-6.696l9.733.408.024 4.332-.006.902s6.741 1.871 5.538 3.808z" class="colorffc5c5 svgShape"/><path fill="#fcafaf" d="m127.927 360.678.024 4.332c-.467-.088-.944-.115-1.417-.142-1.784-.097-3.597-.157-5.33.277-1.24.313-2.448.918-3.343 1.821.009-2.94.304-6.572.333-6.696l9.733.408z" class="colorfcafaf svgShape"/><path fill="#1f2123" d="M81.294 367.691c-.166.072-5.12 7.883-1.34 9.727 3.78 1.844 25.945 3.84 28.364-2.016.403-.987-.234-2.07-1.056-2.96-1.064-1.156-2.453-1.96-3.961-2.401-4.694-1.377-19.162-4.942-21.862-2.649l-.145.299z" class="color1f2123 svgShape"/><path fill="#ffc5c5" d="M96.39 370.55c-1.204 1.933-13.68 2.507-15.088.17-.405-.673-.543-1.74-.533-2.924.008-2.939.303-6.572.333-6.695l9.733.408.024 4.331-.006.903s6.74 1.87 5.537 3.807z" class="colorffc5c5 svgShape"/><path fill="#fcafaf" d="m90.835 361.509.024 4.331c-.467-.088-.944-.114-1.418-.141-1.783-.098-3.596-.157-5.33.276-1.24.313-2.447.918-3.342 1.821.008-2.939.303-6.572.333-6.695l9.733.408z" class="colorfcafaf svgShape"/><path fill="#061437" d="M92.79 130.481h-1.057c-2.626 16.251-9.424 31.804-19.531 44.794h17.162a48.52 48.52 0 0 0 4.686-2.671 49.476 49.476 0 0 0 17.926-20.676L92.79 130.481z" class="color061437 svgShape"/><path fill="#061437" d="M102.264 144.194c-.047 5.711 1.036 11.652 4.453 16.233 2.361 3.167 5.765 5.528 9.534 6.72 3.776 1.177 7.89 1.183 11.692.094a26.821 26.821 0 0 0 2.51-.866 57.994 57.994 0 0 1-2.415-7.477c1.536 1.894 3.086 3.81 4.98 5.345.264.217.535.427.82.63 1.38-.65 2.753-1.306 4.167-1.868-6.793-5.941-10.725-14.968-10.664-23.98h-5.23v-2.18l-19.847 7.349z" class="color061437 svgShape"/><path fill="#061437" d="m90.91 132.713.023-.1c.742-2.243 1.597-4.811 2.648-7.225 2.316-5.317 9.52-12.264 21.27-9.777s12.437 14.58 12.694 25.816c.038 1.677.224 3.206.492 4.621H88.541c1.488-4.34 1.914-8.727 2.369-13.335z" class="color061437 svgShape"/><path fill="#ffc5c5" d="M99.353 139.282c.06.78.017 10.834-.777 22.574l11.442.695.839-10.899s6.586.757 8.403-6.132c1.817-6.89 1.969-20.971 1.514-22.182-.454-1.212-12.34-7.344-18.245-1.59-5.905 5.754-5.602 12.037-5.83 13.324-.218 1.24-.637 4.58 2.654 4.21z" class="colorffc5c5 svgShape"/><path fill="#383838" d="M116.761 133.378a.315.315 0 0 0 .278-.514 1.715 1.715 0 0 0-2.417-.25.316.316 0 0 0 .4.491 1.084 1.084 0 0 1 1.527.158.315.315 0 0 0 .212.115zM106.057 133.033a.316.316 0 0 0 .214-.11 1.082 1.082 0 0 1 1.53-.134.316.316 0 1 0 .407-.484 1.72 1.72 0 0 0-2.42.21.316.316 0 0 0 .269.518zM110.735 141.206c.332.034.7.027 1.056-.072a.666.666 0 0 0 .406-.346c.622-1.144-.388-5.424-.4-5.464a.316.316 0 0 0-.605.187c.25.86.887 4.67.419 5.019-.807.224-1.783-.194-1.792-.198a.316.316 0 1 0-.253.58 4.33 4.33 0 0 0 1.169.294z" class="color383838 svgShape"/><path fill="#fcafaf" d="M113.364 144.016c-.289 1.351-1.437 2.308-2.711 2.176-1.274-.132-2.202-1.302-2.209-2.684l4.92.508z" class="colorfcafaf svgShape"/><path fill="#383838" d="M106.66 136.073c.024.429.278.769.568.752.297-.017.51-.384.485-.813-.025-.435-.278-.768-.575-.751-.29.016-.503.377-.478.812zM115.396 136.542c-.044.428.152.804.442.833.295.03.564-.297.608-.724.045-.434-.152-.804-.447-.834-.29-.03-.558.292-.603.725z" class="color383838 svgShape"/><path fill="#061437" d="M110.925 128.97c-1.781 1.017-3.813 1.485-5.803 1.975-1.991.491-4.015 1.036-5.72 2.175s-3.062 2.993-3.082 5.043c-1.076-3.23-.39-6.866 1.254-9.85s3.152-6.58 5.833-8.68c1.953-1.533 5.105-1.776 7.549-2.218 2.223-.403 5.415.21 6.557 2.406-1.593 1.16-1.462 2.598-2.221 4.295a10.647 10.647 0 0 1-4.367 4.854z" class="color061437 svgShape"/><path fill="#061437" d="M122.54 136.565a9.608 9.608 0 0 0-2.748-5.835c-.924-.916-2.055-1.67-2.702-2.81-.404-.709-.592-1.526-.924-2.28-.333-.754-.88-1.481-1.67-1.705l1.956-4.405c1.392-.08 4.247 2.124 5.315 3.022 1.06.898 1.275 2.433 1.365 3.815.197 3.411 0 6.84-.593 10.198z" class="color061437 svgShape"/><path fill="#fcafaf" d="M104.357 148.27s.43 5.975 6.008 6.302l.496-2.92s-4.66-.123-6.504-3.382z" class="colorfcafaf svgShape"/><path fill="#2b2b2b" d="M79.589 292.602c-.264 34.184 0 70.366 0 70.366s8.41 2.78 11.834 0c3.41-2.775 7.883-36.973 8.147-43.28.264-6.313 4.473-47.075 4.473-47.075s3.153 19.725 4.994 26.302c1.847 6.577 6.577 60.256 8.681 62.882 2.105 2.632 10.637 0 10.637 0 8.533-12.884 3.039-74.98 3.039-79.981 0-2.592-1.773-16.226-3.404-28.968-1.144-8.972-2.22-17.505-2.558-21.423-.115-1.245-.149-2.023-.088-2.206l-2.91.109L83 230.803c-1.326 3.254-2.287 6.218-2.97 9.074-3.201 13.452-.23 24.522-.44 52.725z" class="color2b2b2b svgShape"/><path fill="#1f2123" d="M79.907 240.36c3.627-.887 7.592-.57 11.341-.021 12.89 1.908 25.395 6.367 36.62 12.992-1.143-8.973-2.219-17.505-2.557-21.423a41.738 41.738 0 0 0-2.997-2.098l-39.436 1.475c-1.326 3.255-2.287 6.219-2.97 9.074z" class="color1f2123 svgShape"/><path fill="#fe6b4d" d="M78.078 165.626c.91 5.537 2.958 20.579 3.734 27.135.202-.328.303-.505.303-.505.32.817.607 1.702.843 2.646.177.665.32 1.356.455 2.073 2.444 13.154-1.298 33.884-1.298 33.884 2.874 4.104 46.963 9.893 44.663 0-.582-2.511-.877-5.545-.978-8.68-.303-9.185.978-21.513.978-21.513l.193.27c.64.876 3.177 1.297 6.026 4.693l-.304-30.118c-.581-1.137-1.154-2.165-1.694-3.008-3.328-5.174-10.221-7.896-14.721-9.169-1.871-.539-3.32-.817-3.936-.927-.21-.042-.32-.059-.32-.059s-16.786-1.71-19.264-1.828c-.185-.009-.286-.009-.303 0a1.697 1.697 0 0 1-.531.168c-.362.042-.767.11-1.188.203-2.512.497-5.89 1.618-8.613 2.595a16.033 16.033 0 0 0-4.045 2.14z" class="colorfe6b4d svgShape"/><path fill="#f4573d" d="M126.973 201.245a.31.31 0 0 1-.294-.407c1.892-5.746.76-10.534-3.671-15.525a.31.31 0 1 1 .463-.411c4.595 5.175 5.766 10.15 3.796 16.13a.31.31 0 0 1-.294.213zM82.113 230.86c2.879 4.106 46.967 9.891 44.664 0-.584-2.512-.872-5.549-.976-8.682-2.272 1.586-5.145 2.362-7.945 2.346-3.914-.023-7.704-1.42-11.176-3.232-10.975-5.732-19.524-15.945-23.232-27.76l-.488 1.37c.172.666.321 1.36.454 2.077 2.441 13.154-1.301 33.88-1.301 33.88z" class="colorf4573d svgShape"/><path fill="#fe6b4d" d="M131.435 203.983s12.488 13.618 18.858 14.614c6.375 1.002 24.61-34.725 24.61-34.725l-6.744-5.245-19.736 22.618-15.616-25.367-1.372 28.105z" class="colorfe6b4d svgShape"/><path fill="#ffbd39" d="M69.942 236.454c4.98-4.725 12.269-5.507 18.01-2.447.969.517 2.158.365 2.215.311l41.395-39.287c2.039-1.935 4.107-1.853 5.303-.5 1.139 1.29.997 3.268-.251 4.453l-2.131 2.022a.952.952 0 0 0-.035 1.345l4.804 5.063c.603.635.576 1.639-.059 2.242l-2.646 2.511a1.586 1.586 0 0 1-2.243-.059l-4.804-5.062a.952.952 0 0 0-1.345-.035l-2.465 2.34a.952.952 0 0 0-.036 1.345l2.62 2.761c.604.636.577 1.64-.058 2.243l-2.646 2.51a1.586 1.586 0 0 1-2.243-.058l-2.62-2.761a.952.952 0 0 0-1.346-.036L95.273 238.22a2.536 2.536 0 0 0-.55 2.917c2.827 6.036 1.545 13.483-3.74 18.2-6.028 5.377-15.821 5.034-21.463-.747-6.067-6.219-5.859-16.175.422-22.136zm2.893 9.5a2.855 2.855 0 0 0-.106 4.037l5.24 5.523a2.855 2.855 0 0 0 4.143-3.93l-5.24-5.524a2.855 2.855 0 0 0-4.037-.105z" class="colorffbd39 svgShape"/><path fill="#ffae1f" d="M70.296 259.364c-5.002-6.245-4.463-15.376 1.438-20.979 4.976-4.725 12.273-5.51 18.007-2.447.967.515 2.161.366 2.22.31l41.391-39.288c1.472-1.397 2.966-1.748 4.13-1.307a3.169 3.169 0 0 0-.62-1.083c-1.199-1.351-3.267-1.44-5.307.497l-41.39 39.288c-.06.056-1.247.213-2.221-.31-5.734-3.063-13.031-2.278-18.008 2.447-6.277 5.961-6.484 15.916-.421 22.138.253.252.506.503.781.734z" class="colorffae1f svgShape"/><path fill="#ffae1f" d="M102.784 225.1c-.622-.753-.245-.468-.877-1.202a10.693 10.693 0 0 1-.326-.377l-7.352 6.974-4.068 3.864c-.061.051-1.244.204-2.212-.316-5.74-3.059-13.041-2.274-18.017 2.447-6.27 5.965-6.485 15.916-.418 22.136.255.255.51.51.785.734-5.006-6.24-4.466-15.376 1.438-20.973 4.976-4.732 12.266-5.506 18.006-2.447.969.51 2.162.367 2.223.305l4.66-4.425 6.535-6.199c-.122-.173-.244-.367-.377-.52zM84.774 250.344a1.188 1.188 0 0 1 .044-1.687l3.393-3.222a1.188 1.188 0 0 1 1.687.044c.456.48.437 1.23-.044 1.686l-3.394 3.223c-.48.456-1.23.437-1.686-.044z" class="colorffae1f svgShape"/><path fill="#ffae1f" d="M81.51 246.906a1.188 1.188 0 0 1 .043-1.686l3.394-3.223a1.188 1.188 0 0 1 1.686.044c.457.48.437 1.23-.043 1.686l-3.394 3.223c-.48.456-1.23.437-1.687-.044zM78.245 243.468a1.188 1.188 0 0 1 .044-1.686l3.394-3.223a1.188 1.188 0 0 1 1.686.044c.457.48.437 1.23-.044 1.686l-3.393 3.223c-.481.456-1.23.437-1.687-.044z" class="colorffae1f svgShape"/><path fill="#ffc5c5" d="M107.76 229.965c-.184.02-.388.03-.52.132-.775.55-1.611.948-2.59.775-.47-.071-.694.112-.867.48-.153.376-.438.52-.826.53-.316.01-.642-.01-.958.04-.428.072-.979.061-1.234.327-.744.713-1.764.723-2.508.397a17.59 17.59 0 0 1-1.631-.826c-.327-.173-.653-.357-.98-.53-.468-.255-.948-.52-1.417-.795a64.274 64.274 0 0 1-1.142-.663c-.856-.51-1.753-.968-2.528-1.58-.765-.602-.408-.326-1.122-1.01-.815-.255-3.344-1.06-6.74-2.243a139.359 139.359 0 0 1 5.017-7.963l3.446 1.651c.051.01.092.031.143.041a4.278 4.278 0 0 0 2.09.133c.755-.122 1.52-.255 2.284-.306 1.305-.092 2.61-.377 3.926-.04 1.244.326 2.62-.031 3.772.825.337.245.826.275 1.224.439.214.081.5.193.56.346l-1.437 1.366a1.969 1.969 0 0 1-1.111-.02c-.714-.224-1.418-.377-2.162-.285-.245.03-.5.102-.744.153.652.764 1.264 1.468 1.876 2.182.102.122.214.254.326.377.632.734.255.449.877 1.203.133.153.255.347.377.52.133.194.265.377.449.51.775.58 1.6 1.08 2.416 1.6.102.072.265.052.398.082.754.133 1.427.418 1.845 1.111.327.531.092.96-.51 1.04z" class="colorffc5c5 svgShape"/><path fill="#fe6b4d" d="M44.37 204.12c3.01 5.42 42.902 24.085 42.902 24.085l3.464-10.686-23.275-14.3 14.35-10.365c-1.183-10.068-2.41-19.398-3.733-27.135-.893.464-36.716 32.983-33.707 38.402z" class="colorfe6b4d svgShape"/><path fill="#f4573d" d="M87.272 228.515a.315.315 0 0 1-.131-.03c-1.632-.763-40.019-18.77-43.04-24.214-.468-.842-1.89-3.402 13.452-19.379a.31.31 0 1 1 .447.43c-13.072 13.613-13.98 17.527-13.358 18.648 2.925 5.27 42.364 23.768 42.762 23.954a.31.31 0 0 1-.132.59z" class="colorf4573d svgShape"/><path fill="#f4573d" d="M90.735 217.83a.31.31 0 0 1-.162-.046l-23.274-14.3a.31.31 0 0 1-.02-.516l14.35-10.365a.31.31 0 0 1 .364.502L68.02 203.198l22.878 14.057a.31.31 0 0 1-.162.574z" class="colorf4573d svgShape"/><path fill="#ffc5c5" d="M92.345 162.441c0 4.087 5.334 14.088 11.966 14.088 6.144 0 11.25-9.529 11.967-13.195-1.871-.539-3.32-.817-3.936-.927-.21-.042-.32-.059-.32-.059s-16.786-1.71-19.264-1.828a4.745 4.745 0 0 0-.413 1.921z" class="colorffc5c5 svgShape"/><path fill="#fcafaf" d="M92.345 162.441c0 4.087 5.334 14.09 11.966 14.09 2.132 0 4.13-1.146 5.866-2.79-1.433 1.08-3 1.762-4.644 1.762-6.632 0-11.957-10.003-11.957-14.09 0-.278.025-.556.075-.826-.387-.034-.69-.059-.893-.067a4.745 4.745 0 0 0-.413 1.921z" class="colorfcafaf svgShape"/><path fill="#c7d6f2" d="M100.154 132.258c.086-2.332.4-4.771 1.045-6.988.337-1.108.735-2.188 1.276-3.168.55-.96 1.204-1.89 1.985-2.69 1.541-1.62 3.545-2.782 5.763-3.223a10.856 10.856 0 0 1 3.442-.142c1.173.136 3.838.697 5.018 1.106l.009.002a.247.247 0 0 0 .232-.427c-1.016-.79-3.679-1.655-4.944-2.088-1.268-.424-2.641-.587-4.013-.506-2.752.163-5.44 1.42-7.412 3.354-.99.965-1.86 2.045-2.53 3.27-.674 1.21-1.139 2.496-1.465 3.796-.64 2.616-.79 5.225-.406 7.883a1.004 1.004 0 0 0 1.997-.106l.003-.073z" class="colorc7d6f2 svgShape"/><path fill="#edf3ff" d="M110.682 114.959c-1.697-.02-3.342.458-4.812 1.257-3.953 2.145-5.505 5.871-6.575 10.176l-.404 2.454a.184.184 0 0 0 .363.06l.003-.015.402-2.423c.968-3.863 2.433-7.779 6.37-9.962 1.409-.787 3.03-1.266 4.634-1.261h.016a.143.143 0 0 0 .003-.286zM104.244 138.764c-1.033 2.082-3.26 2.79-5.277 1.608-2.412-1.413-3.421-4.539-2.83-7.19.695-3.114 4.207-4.662 6.62-2.37 2.156 2.049 2.618 5.671 1.487 7.952z" class="coloredf3ff svgShape"/><path fill="#4052f2" d="M102.532 137.684c-.633 1.403-2.029 1.865-3.307 1.048-1.528-.977-2.188-3.103-1.837-4.895.413-2.105 2.609-3.125 4.145-1.553 1.372 1.405 1.692 3.863.999 5.4z" class="color4052f2 svgShape"/><path fill="#1939d1" d="M98.38 134.352c-.13.647-.062 1.29.137 1.904.211.607.585 1.149 1.032 1.599a.184.184 0 1 0 .26-.26 4.124 4.124 0 0 1-.939-1.466c-.208-.537-.295-1.151-.21-1.711l.002-.016a.143.143 0 0 0-.282-.05z" class="color1939d1 svgShape"/><path fill="#25a59f" d="M348.715 305.463c1.021 1.987 2.735 8.775 3.102 14.9.505 6.162-.337 11.66-1.263 11.925-1.005.5-2.885-4.447-6.289-8.213-3.179-3.997-7.881-6.813-9.348-7.384-3.14-1.562-3.968-7.384.48-12.529 4.479-5.142 11.44-3.45 13.318 1.3z" class="color25a59f svgShape"/><path fill="#383838" d="M357.283 355.693a.32.32 0 0 1-.259-.132c-4.725-6.569-5.75-15.006-6.655-22.45-.849-6.985-1.906-15.68-6.604-22.126a.319.319 0 0 1 .069-.445.319.319 0 0 1 .444.07c4.797 6.58 5.865 15.366 6.724 22.425.894 7.367 1.908 15.718 6.54 22.154a.318.318 0 0 1-.259.504z" class="color383838 svgShape"/><path fill="#3fc4bd" d="M375.307 339.969c-.984.113-4.788 1.144-7.476 2.916-2.857 1.634-4.598 4.01-5.378 3.644-.731-.143-.37-3.429 1.905-6.27 2.045-2.915 6.003-5.386 7.168-5.626 2.271-.892 5.309.078 6.138 1.769.846 1.687-.471 3.103-2.357 3.567zM335.854 326.206c-3.316-.465-4.45 1.19-2.969 2.882 1.48 1.743 3.895 3.598 5.783 4.587.924.354 4.836 2.24 7.147 5.483 2.56 2.98 3.518 7.317 4.3 6.48.886-.678 1.099-7.027-2.707-11.92-1.736-2.451-4.161-4.5-6.445-5.694-2.266-1.24-4.39-1.625-5.11-1.818z" class="color3fc4bd svgShape"/><path fill="#25a59f" d="M334.626 333.745c.911.08 4.366 1.588 6.454 3.767 2.246 2.078 3.126 4.825 2.538 5.056-.582.362-2.394-1.346-4.734-2.387-2.261-1.165-5.05-1.663-5.765-1.751-1.38-.288-2.563-1.375-2.394-2.732.161-1.355 2.032-2.403 3.901-1.953z" class="color25a59f svgShape"/><path fill="#32b5b3" d="M385.98 317.165c-1.06 0-3.988.088-7.297 1.06-3.31.93-7 2.742-9.629 5.256-5.724 4.855-6.545 11.435-7.643 10.895-.928-.125-3.031-7.087.236-15.034 1.448-3.908 4.374-7.85 7.553-10.685 3.14-2.875 6.53-4.645 8.014-5.136 6.03-2.707 15.373.702 16.498 5.777 1.198 4.95-3.397 7.62-7.732 7.867z" class="color32b5b3 svgShape"/><path fill="#383838" d="M358.07 355.477a.369.369 0 0 1-.366-.328c-1.193-11.083 2.403-35.358 24.557-47.903a.368.368 0 1 1 .363.64c-21.821 12.357-25.363 36.267-24.188 47.184a.368.368 0 0 1-.366.407z" class="color383838 svgShape"/><path fill="#383838" d="M361.972 351.127a.365.365 0 0 1-.276-.124c-.724-.82-.974-2.104-.655-3.35.29-1.13.969-2.108 1.594-2.915a25.87 25.87 0 0 1 11.17-8.303.37.37 0 0 1 .475.212.369.369 0 0 1-.212.475 25.13 25.13 0 0 0-10.851 8.066c-.58.748-1.207 1.648-1.463 2.647-.26 1.014-.071 2.041.493 2.681a.368.368 0 0 1-.275.611zM349.376 353.899a.368.368 0 0 1-.362-.305c-1.324-7.636-6.834-14.412-14.04-17.265a.368.368 0 1 1 .272-.684c7.438 2.945 13.126 9.94 14.492 17.823a.368.368 0 0 1-.362.43zM352.639 352.207a.225.225 0 0 1-.215-.16c-1.205-4.057-2.451-8.251-4.405-12.083-2.193-4.304-4.979-7.516-8.28-9.546a.224.224 0 0 1 .235-.382c3.372 2.074 6.212 5.346 8.444 9.725 1.972 3.868 3.225 8.082 4.435 12.158a.223.223 0 0 1-.214.288z" class="color383838 svgShape"/><path fill="#3fc4bd" d="M370.548 301.507c-1.28 1.477-5.23 6.678-7.798 12.53-2.835 5.627-4.29 11.904-6.738 10.343-2.54-1.16-5.405-11.58-3.895-20.443.981-9.125 6.339-16.691 7.992-18.204 4.112-4.052 8.621-1.272 10.823 3.207 2.276 4.52 2.183 8.875-.384 12.567z" class="color3fc4bd svgShape"/><path fill="#383838" d="M357.354 353.575a.368.368 0 0 1-.317-.182c-2.876-4.893-3.885-11.167-2.998-18.648.478-4.034 1.435-8.043 2.358-11.92.523-2.19 1.063-4.453 1.51-6.693.96-4.81 2.002-11.973-.014-18.615a.367.367 0 1 1 .703-.214c2.065 6.8 1.007 14.085.032 18.974-.45 2.252-.99 4.523-1.515 6.719-.92 3.856-1.87 7.844-2.344 11.835-.867 7.318.11 13.438 2.903 18.19a.369.369 0 0 1-.318.554z" class="color383838 svgShape"/><path fill="#ffc5c5" d="m370.39 350.701-3.568 20.96a3.965 3.965 0 0 1-3.909 3.3h-13.602a3.964 3.964 0 0 1-3.908-3.3l-2.102-12.342-1.421-8.358-.045-.26h28.555z" class="colorffc5c5 svgShape"/><path fill="#fcafaf" d="m370.39 350.701-3.568 20.96a3.965 3.965 0 0 1-3.008 3.196 21.264 21.264 0 0 0-.717-4.818c-1.188-4.37-4.014-8.381-8.018-10.498-3.61-1.909-8.18-2.09-11.778-.222l-1.421-8.358c.047-.088.095-.174.144-.26h28.366z" class="colorfcafaf svgShape"/><path fill="#ffc5c5" d="M369.93 355.12h-27.692a1.888 1.888 0 0 1-1.887-1.888v-2.356c0-1.043.845-1.888 1.887-1.888h27.692c1.042 0 1.888.845 1.888 1.888v2.356a1.888 1.888 0 0 1-1.888 1.887z" class="colorffc5c5 svgShape"/><circle cx="379.485" cy="207.132" r="9.568" fill="#4052f2" class="color4052f2 svgShape"/><path fill="#ffffff" d="M378.445 206.587v-4.811a.978.978 0 0 1 1.956 0v4.811a.978.978 0 0 1-1.956 0z" class="colorfff svgShape"/><path fill="#ffffff" d="M384.73 207.862c0 1.428-.554 2.77-1.568 3.779a5.295 5.295 0 0 1-3.778 1.568 5.311 5.311 0 0 1-3.782-1.568 5.352 5.352 0 0 1 0-7.561.985.985 0 0 1 1.384 0 .977.977 0 0 1 0 1.384 3.395 3.395 0 0 0 0 4.796c.642.641 1.49.993 2.398.993a3.37 3.37 0 0 0 2.398-.993 3.37 3.37 0 0 0 .993-2.398c0-.907-.352-1.756-.993-2.398a.977.977 0 1 1 1.38-1.384 5.304 5.304 0 0 1 1.569 3.782z" class="colorfff svgShape"/><path fill="#d5e1fa" d="M95.123 90.013s.104-4.93-3.244-4.645l3.356 8.472c.024.04.035.078.048.122.351.964-.122 2.32-1.223 3.323-1.337 1.2-3.088 1.42-3.912.496-.84-.93-.431-2.659.9-3.856 1.03-.927 2.316-1.274 3.235-.947l-5.192-13.105a.286.286 0 0 1 .149-.365l.01-.004a.283.283 0 0 1 .37.162l.215.543c.489.39 1.474 1.063 3.405 2.119 2.999 1.649 3.018 5.425 1.883 7.685zM131.188 87.012c.294.577.696 1.073 1.097 1.538-.043.158-.087.3-.115.457-.314 1.401-.438 2.894-.156 4.349.07.36.173.735.369 1.109.195.374.563.745 1.035.848.943.222 1.788-.481 2.054-1.223.28-.757.215-1.588-.035-2.29-.265-.702-.685-1.324-1.151-1.867a17.357 17.357 0 0 0-1.04-1.083c-.288-.294-.576-.572-.832-.851-.321-.372-.627-.76-.855-1.18-.813-1.432-.904-3.424.1-4.74.7-.921 2.41-1.354 3.467-.961 1.23.437 2.008 1.697 1.878 2.907-.098 1.226-1.092 2.291-2.386 2.483-1.278.19-2.78-.54-3.438-2.022h-.016c-.01 1.648 1.62 3.288 3.528 3.245.939.017 1.869-.373 2.59-.995.721-.654 1.154-1.586 1.274-2.545a4.103 4.103 0 0 0-.78-2.766l-.015-.016c-.934-1.21-2.618-1.688-4.03-1.15-1.645.605-2.203 1.554-2.218 1.57-1.016 1.49-1.174 3.548-.325 5.183zm1.898 2.405c.288.279.544.573.785.868.836 1.023 1.445 2.395.953 3.532-.222.553-.763.874-1.22.74-.44-.104-.671-.697-.764-1.354-.199-1.237-.07-2.526.246-3.786z" class="colord5e1fa svgShape"/><path fill="#d5e1fa" d="M130.055 75.919c.066-1.272 1.153-2.324 2.42-2.342a.965.965 0 0 1 .22.012.923.923 0 0 1 .219.028c1.804.241 2.965 1.825 3.263 3.296.331 1.58.082 3.059-.263 4.46-.692 2.678-2.003 5.004-2.668 7.477-.288-.294-.576-.572-.832-.851.682-2.41 1.76-4.623 2.257-6.937.285-1.291.428-2.643.12-3.815-.052-.25-.15-.5-.265-.718-.34.946-1.247 1.65-2.295 1.665-1.266.018-2.243-1.003-2.176-2.275zM69.173 119.995c-.3-.436-.68-.795-1.057-1.129.02-.132.04-.252.047-.382.112-1.17.058-2.392-.323-3.542a3.228 3.228 0 0 0-.417-.859c-.198-.282-.538-.543-.934-.576-.795-.079-1.414.582-1.554 1.21-.151.645-.012 1.311.265 1.854.29.54.699 1 1.136 1.389.315.278.64.528.963.766.266.208.53.402.769.6.301.268.591.55.822.866.813 1.073 1.094 2.678.409 3.853-.477.82-1.832 1.355-2.737 1.15-1.052-.223-1.82-1.16-1.838-2.155-.047-1.004.656-1.974 1.695-2.268 1.026-.292 2.33.14 3.023 1.27l.012-.002c-.161-1.337-1.666-2.491-3.222-2.251-.77.086-1.49.502-2.017 1.084-.522.607-.78 1.409-.778 2.199a3.32 3.32 0 0 0 .924 2.158l.015.011c.89.881 2.317 1.088 3.416.5 1.283-.666 1.641-1.496 1.652-1.51.677-1.317.593-3.002-.27-4.236zm-1.802-1.745a8.195 8.195 0 0 1-.733-.62c-.79-.74-1.43-1.786-1.145-2.76.125-.472.534-.79.921-.73.37.036.622.492.766 1.015.291.981.32 2.04.19 3.095z" class="colord5e1fa svgShape"/><path fill="#d5e1fa" d="M71.25 128.865c.078 1.038-.703 2.007-1.738 2.157-.064.01-.127.019-.18.014a.767.767 0 0 1-.183 0c-1.501-.001-2.615-1.16-3.011-2.32-.435-1.246-.384-2.47-.247-3.644.289-2.244 1.12-4.27 1.408-6.346.266.208.53.402.769.6-.309 2.028-.962 3.937-1.128 5.866-.1 1.076-.076 2.187.296 3.104.07.198.176.39.292.554.18-.804.85-1.471 1.705-1.596a1.741 1.741 0 0 1 2.017 1.61z" class="colord5e1fa svgShape"/><path fill="#5ac8fa" d="M220.21 273.681c.108.984.004 2.06-.287 3.008-1.102 3.62-3.521 6.087-6.971 7.572-.993.427-2.053.637-3.126.572-2.675-.17-4.305-2.056-4.183-4.76.108-2.15.968-4.014 2.27-5.668 1.455-1.861 3.262-3.274 5.536-4.016a8.298 8.298 0 011.684-.356c.55-.057 1.116-.02 1.788-.028-.092-.464-.165-.901-.26-1.342-.731-3.187-1.463-6.367-2.186-9.553-.762-3.337-1.509-6.672-2.264-10.007-.088-.387-.007-.573.42-.732 1.98-.709 3.911-.571 5.698.453 1.681.963 3.27 2.095 4.88 3.17 1.556 1.043 3.09 2.13 4.995 2.393.672.098 1.38.003 2.136-.008a6.856 6.856 0 01-2.87.54c-1.653-.058-3.14-.687-4.611-1.36-1.437-.653-2.875-1.298-4.337-1.886-.908-.361-1.895-.338-2.87-.237-.325.029-.42.16-.34.5.68 2.958 1.33 5.913 2.003 8.87.663 2.918 1.341 5.839 2.004 8.757.318 1.373.737 2.73.892 4.118zM192.358 254.668c-.431-.384-.986-.656-1.515-.9-.542-.255-.663-.159-.751.446-.614 4.195-1.287 8.374-1.819 12.581-.25 1.969-1.248 3.317-2.857 4.31-1.583.972-3.28 1.418-5.15 1.068-2.092-.398-3.067-2.44-1.974-4.277 1.567-2.637 4.001-3.692 6.975-3.584.57.015 1.13.302 1.796.491l1.985-13.563c1.516-.098 2.741.44 3.632 1.546.96 1.2 1.783 2.502 2.685 3.74.738 1 1.596 1.858 2.877 2.121-1.38.043-2.46-.596-3.407-1.52-.826-.815-1.614-1.685-2.477-2.46zM204.132 271.747c.535 1.397.717 2.758.073 4.136-.877 1.876-2.174 3.288-4.346 3.648-1.384.232-2.637-.79-2.606-2.356.048-2.57 1.368-4.397 3.641-5.551.24-.125.502-.201.763-.262.26-.061.536-.067.923-.11-1.095-3.041-2.162-6.011-3.27-9.07-.259.206-.467.38-.676.556-2.726 2.216-5.451 4.425-8.164 6.658-.14.125-.237.47-.171.646.8 2.298 1.64 4.579 2.464 6.865.391 1.079.831 2.134 1.183 3.223.407 1.28.09 2.506-.525 3.636-.78 1.419-1.884 2.507-3.483 3.013-1.256.403-2.655-.145-2.99-1.193-.3-.92-.34-1.834.009-2.766.704-1.895 1.894-3.306 3.825-3.992.378-.135.785-.16 1.24-.246-.324-.908-.636-1.8-.957-2.679-.76-2.1-1.537-4.19-2.28-6.296-.055-.152.014-.463.134-.56 3.599-2.965 7.21-5.913 10.82-8.861.026-.02.07-.005.171-.021.235.637.49 1.291.721 1.95 1.162 3.213 2.284 6.434 3.5 9.632zM238.386 276.927c-.276.768-.685 1.396-1.442 1.737-1.03.464-2.07.587-3.096-.037-.655-.396-.81-1.265-.24-1.902.935-1.046 2.131-1.333 3.482-1.001.144.033.28.095.409.163.13.067.245.163.42.283.63-1.648 1.246-3.256 1.876-4.916-.18-.007-.329-.01-.478-.01-1.916-.054-3.83-.11-5.747-.152-.102.002-.265.11-.3.207-.487 1.235-.951 2.478-1.424 3.717-.222.586-.416 1.179-.658 1.754-.286.675-.854 1.07-1.51 1.318-.828.31-1.672.367-2.514.007-.663-.28-1.047-1.005-.813-1.557.204-.488.512-.88.988-1.142.966-.533 1.96-.693 3.004-.29.204.078.381.213.6.34.19-.492.378-.972.558-1.45.433-1.14.855-2.28 1.297-3.416.032-.082.17-.187.255-.183 2.544.053 5.087.118 7.63.184.017 0 .03.022.078.052-.13.347-.257.708-.396 1.063-.662 1.743-1.345 3.475-1.979 5.23z" opacity=".5" class="color5ac8fa svgShape"/><path fill="#5ac8fa" d="M250.473 243.571c.025-.172.028-.347.049-.542-.556.095-1.038.161-1.524.25a1.87 1.87 0 0 0-.136.041l-1.83.365-1.781.35-.055.007-1.743.347-1.766.344-.974.193-1.601.314-.023-.003c-1.858.353-3.715.745-5.574 1.098-.337.065-.394.247-.427.524-.25 1.87-.502 3.74-.775 5.605-.275 1.881-.58 3.758-.87 5.637-.026.118-.081.24-.132.377-1.262-.596-2.524-.727-3.823-.445-2.331.505-4.264 1.625-5.32 3.834-.647 1.354-.512 2.464.499 3.42.67.632 1.537.858 2.428.913 1.986.13 3.733-.499 5.29-1.704 1.108-.852 1.946-1.888 2.154-3.314.442-3.016.89-6.03 1.293-9.044.068-.516.298-.68.753-.767 1.652-.292 3.3-.615 4.941-.939 2.276-.444 4.548-.912 6.826-1.364.573-.115 1.15-.206 1.776-.312l-1.15 7.852c-.368-.137-.662-.264-.97-.355-.322-.085-.658-.188-.993-.191-3-.073-5.463 1.015-7.027 3.63-1.17 1.948-.435 3.962 1.894 4.509 1.098.26 2.181.205 3.27-.101a8.394 8.394 0 0 0 3.535-2.007c1.07-1.01 1.447-2.28 1.643-3.724.661-4.935 1.42-9.864 2.143-14.798zm-2.905 3.746c-1.944.363-3.889.734-5.835 1.113l-7.561 1.493c.098-.672.187-1.223.252-1.778.011-.074.029-.14.044-.192l.007.001 14.19-2.817c.007.008.007.008.006.016-.052.404-.11.807-.162 1.21-.12.815-.126.806-.94.954z" opacity=".5" class="color5ac8fa svgShape"/><circle cx="314.35" cy="257.649" r="11.15" fill="#fe6b4d" class="colorfe6b4d svgShape"/><path fill="#ffffff" d="m319.324 258.06-7.46 4.814c-.344.208-.774-.019-.774-.41v-9.628c0-.393.43-.62.775-.412l7.459 4.814a.482.482 0 0 1 0 .822z" class="colorfff svgShape"/><path fill="#d5e1fa" d="M366.617 138.752c-.102 0-.228-.496-.372-1.469a24.084 24.084 0 0 0-1.114-4.244 18.347 18.347 0 0 0-3.747-6.142c-.955-1.084-2.162-2.087-3.537-3.042a20.076 20.076 0 0 0-4.864-2.252c-3.097-.891-6.452-1.063-9.586-.234-3.154.748-6.037 2.449-8.35 4.708-2.258 2.315-3.955 5.2-4.702 8.355-.827 3.134-.65 6.489.242 9.586a20.089 20.089 0 0 0 2.255 4.857c.953 1.375 1.958 2.579 3.04 3.533a18.357 18.357 0 0 0 6.14 3.745c1.824.657 3.272.952 4.241 1.116.973.146 1.47.273 1.47.378 0 .105-.498.182-1.517.226-1.015.023-2.558-.096-4.551-.633-1.982-.543-4.42-1.611-6.826-3.63-1.22-.989-2.37-2.258-3.462-3.738a21.202 21.202 0 0 1-2.626-5.29c-.995-3.436-1.181-7.137-.27-10.612.83-3.495 2.705-6.692 5.206-9.25 2.557-2.504 5.752-4.383 9.247-5.215 3.475-.913 7.176-.733 10.611.262 2.013.66 3.777 1.59 5.299 2.623 1.48 1.093 2.753 2.242 3.74 3.463 2.022 2.408 3.091 4.847 3.634 6.83.537 1.994.656 3.537.63 4.553-.045 1.02-.123 1.516-.23 1.516z" class="colord5e1fa svgShape"/><path fill="#3fc4bd" d="M360.591 138.759c0 7.062-5.728 12.79-12.796 12.79-3.922 0-7.43-1.76-9.774-4.533-.119-.138-.23-.282-.342-.427a12.708 12.708 0 0 1-2.68-7.83c0-7.068 5.728-12.803 12.796-12.803 4.178 0 7.89 1.997 10.221 5.098.19.256.375.512.539.781a12.706 12.706 0 0 1 2.036 6.924z" class="color3fc4bd svgShape"/><path fill="#32b5b3" d="M360.591 138.759c0 7.062-5.728 12.79-12.796 12.79-3.922 0-7.43-1.76-9.774-4.533-.119-.138-.23-.282-.342-.427a12.69 12.69 0 0 1-2.555-6.043 12.768 12.768 0 0 0 10.024 4.841c7.068 0 12.796-5.728 12.796-12.79 0-.61-.04-1.208-.125-1.793a10.304 10.304 0 0 1 .736 1.031 12.706 12.706 0 0 1 2.036 6.924z" class="color32b5b3 svgShape"/><path fill="#ffffff" d="M356.324 133.36c.322.398-.812 1.912-3.56 4.412l-3.663 2.966-1.832 1.484-.457.37-.23.186-.196.157a2.236 2.236 0 0 1-2.435.216 2.27 2.27 0 0 1-.75-.705l-.13-.203-.078-.13-.153-.255-.287-.485-.503-.876c-.303-.541-.542-.999-.72-1.37-.175-.367-.294-.657-.338-.84a.776.776 0 0 0-.057-.213c-.012-.026.025-.04.044-.095.038-.056.048-.155.118-.235.083-.063.198-.064.348-.018.28.08.58.255.938.526.356.271.756.637 1.203 1.1.223.23.458.486.704.766l.72.842a.043.043 0 0 0 .027-.022l6.215-5.033c3.024-2.16 4.733-2.964 5.072-2.546z" class="colorfff svgShape"/><path fill="#e1ebff" d="M335.938 177.763a5.692 5.692 0 0 1 8.025-.512 5.692 5.692 0 0 1 .511 8.025 5.693 5.693 0 0 1-8.025.512 5.693 5.693 0 0 1-.511-8.025zm6.636 5.84a3.158 3.158 0 0 0-.284-4.452 3.158 3.158 0 0 0-4.452.284 3.158 3.158 0 0 0 .284 4.452 3.158 3.158 0 0 0 4.452-.283z" class="colore1ebff svgShape"/><path fill="#4052f2" d="M166.561 285.91c.32-.053.66.017.943.221l7.049 5.072c.567.408.696 1.2.288 1.767l-5.072 7.048c-.408.567-1.2.696-1.767.288l-7.048-5.072a1.266 1.266 0 0 1-.288-1.767l5.072-7.048c.204-.284.504-.458.823-.51zm5.486 6.608-4.994-3.593-3.593 4.994 4.993 3.593 3.594-4.994z" opacity=".5" class="color4052f2 svgShape"/><path fill="#ff8261" d="M288.386 286.903a1.088 1.088 0 0 1 1.331.772l2.712 10.203a1.088 1.088 0 0 1-1.468 1.285l-8.034-3.328a1.088 1.088 0 0 1-.444-1.671l5.322-6.875c.15-.193.355-.326.581-.386zm1.374 9.407-1.58-5.95-3.104 4.01 4.684 1.94z" opacity=".5" class="colorff8261 svgShape"/><path fill="#edf3ff" d="M394.902 240.874v16.85a2.268 2.268 0 0 1-2.266 2.267h-21.15a2.268 2.268 0 0 1-2.266-2.266v-16.85a2.268 2.268 0 0 1 2.266-2.267h21.15a2.268 2.268 0 0 1 2.266 2.266z" class="coloredf3ff svgShape"/><path fill="#d5e1fa" d="M402.402 267.142H382.31a2.525 2.525 0 0 1-2.527-2.517v-15.051a2.525 2.525 0 0 1 2.527-2.516h20.092a2.52 2.52 0 0 1 2.517 2.516v15.051a2.52 2.52 0 0 1-2.517 2.517zm-20.092-19.584a2.024 2.024 0 0 0-2.027 2.016v15.051c0 1.112.91 2.017 2.027 2.017h20.092a2.019 2.019 0 0 0 2.017-2.017v-15.051a2.019 2.019 0 0 0-2.017-2.016H382.31z" class="colord5e1fa svgShape"/><path fill="#edf3ff" d="M216.344 322.712v16.85a2.268 2.268 0 0 1-2.267 2.267h-21.149a2.268 2.268 0 0 1-2.266-2.266v-16.85a2.268 2.268 0 0 1 2.266-2.267h21.15a2.268 2.268 0 0 1 2.266 2.266z" class="coloredf3ff svgShape"/><path fill="#d5e1fa" d="M223.844 348.98h-20.092a2.525 2.525 0 0 1-2.526-2.516v-15.052a2.525 2.525 0 0 1 2.526-2.516h20.092a2.52 2.52 0 0 1 2.516 2.516v15.052a2.52 2.52 0 0 1-2.516 2.516zm-20.092-19.584a2.024 2.024 0 0 0-2.026 2.016v15.052c0 1.111.909 2.016 2.026 2.016h20.092a2.019 2.019 0 0 0 2.016-2.016v-15.052a2.019 2.019 0 0 0-2.016-2.016h-20.092z" class="colord5e1fa svgShape"/></svg>